<svg width="12" height="12" viewBox="0 0 12 12" fill="none" xmlns="http://www.w3.org/2000/svg">
<path d="M6 8.4C5.91389 8.39965 5.82886 8.38077 5.7507 8.34463C5.67253 8.3085 5.60306 8.25597 5.547 8.1906L3.1974 5.5092C3.09532 5.39021 3.02949 5.24446 3.00769 5.0892C2.98589 4.93395 3.00904 4.7757 3.0744 4.6332C3.12827 4.50606 3.21802 4.39738 3.33268 4.32044C3.44734 4.24351 3.58193 4.20165 3.72 4.2H8.28C8.41787 4.20153 8.55229 4.24328 8.66676 4.32013C8.78124 4.39698 8.87078 4.50558 8.9244 4.6326C8.99053 4.77444 9.01438 4.93233 8.9931 5.08737C8.97181 5.24241 8.9063 5.38803 8.8044 5.5068L6.4536 8.1906C6.39748 8.25604 6.32791 8.30862 6.24963 8.34476C6.17136 8.38089 6.08622 8.39974 6 8.4Z" fill="#65676B"/>
</svg>
