<svg width="16" height="16" viewBox="0 0 16 16" fill="none" xmlns="http://www.w3.org/2000/svg">
<g clip-path="url(#clip0_187_745)">
<path d="M10.743 2.25699C11.8683 3.38218 12.5006 4.9083 12.5006 6.49964C12.5007 8.09098 11.8687 9.61718 10.7435 10.7425C9.61831 11.8678 8.09218 12.5001 6.50084 12.5001C4.9095 12.5002 3.3833 11.8682 2.25799 10.743C1.13268 9.61781 0.500429 8.09169 0.500336 6.50035C0.500242 4.90901 1.13231 3.38281 2.25749 2.25749C3.38267 1.13218 4.9088 0.499934 6.50014 0.49984C8.09148 0.499746 9.61768 1.13181 10.743 2.25699ZM9.68299 3.31699C8.83907 2.47294 7.69442 1.99871 6.50084 1.99861C5.30727 1.99852 4.16254 2.47258 3.31849 3.31649C2.47444 4.16041 2.0002 5.30507 2.00011 6.49864C2.00002 7.69222 2.47407 8.83694 3.31799 9.68099C4.16522 10.5082 5.30435 10.9681 6.48842 10.9611C7.67249 10.9541 8.80608 10.4806 9.64342 9.64342C10.4808 8.80621 10.9544 7.6727 10.9616 6.48863C10.9688 5.30456 10.5091 4.16536 9.68199 3.31799L9.68299 3.31699Z" fill="#050505"/>
<path d="M10.39 8.75C10.3121 8.88839 10.2456 9.03286 10.191 9.182C10.036 9.599 9.96101 10.031 10.019 10.466C10.074 10.881 10.251 11.26 10.559 11.569C10.6949 11.7054 10.878 11.7843 11.0705 11.7894C11.263 11.7944 11.45 11.7253 11.5929 11.5963C11.7358 11.4673 11.8236 11.2882 11.8382 11.0963C11.8527 10.9043 11.7928 10.7141 11.671 10.565L11.62 10.508C11.5551 10.4438 11.5147 10.3589 11.506 10.268C11.485 10.113 11.52 9.912 11.596 9.705C11.627 9.624 11.656 9.56 11.676 9.523L11.688 9.501C11.7374 9.41571 11.7695 9.32152 11.7825 9.22383C11.7954 9.12613 11.789 9.02683 11.7636 8.93161C11.7382 8.83638 11.6943 8.74709 11.6344 8.66883C11.5745 8.59057 11.4998 8.52488 11.4145 8.4755C11.3292 8.42612 11.235 8.39403 11.1373 8.38105C11.0396 8.36807 10.9403 8.37447 10.8451 8.39986C10.7499 8.42526 10.6606 8.46916 10.5823 8.52907C10.5041 8.58897 10.4384 8.66371 10.389 8.749L10.39 8.75Z" fill="#050505"/>
<path d="M9.557 11.659C9.595 11.641 9.647 11.619 9.707 11.595C9.914 11.518 10.115 11.483 10.269 11.503C10.349 11.513 10.412 11.537 10.467 11.58L10.508 11.616C10.6502 11.7485 10.8382 11.8206 11.0325 11.8172C11.2268 11.8137 11.4122 11.735 11.5496 11.5976C11.687 11.4602 11.7657 11.2748 11.7692 11.0805C11.7726 10.8862 11.7005 10.6982 11.568 10.556C11.2711 10.2577 10.8827 10.0675 10.465 10.016C10.03 9.95799 9.598 10.034 9.181 10.191C8.992 10.261 8.845 10.334 8.748 10.391C8.58743 10.4851 8.46759 10.6355 8.41175 10.813C8.35591 10.9906 8.36808 11.1825 8.44588 11.3516C8.52367 11.5207 8.66155 11.6548 8.83271 11.7278C9.00387 11.8009 9.19609 11.8077 9.372 11.747L9.438 11.72L9.558 11.659H9.557Z" fill="#050505"/>
<path d="M13.463 15.142L13.423 15.098L9.84903 10.906C9.25003 10.203 10.204 9.24997 10.907 9.84897L15.098 13.423L15.142 13.463C15.2 13.522 15.264 13.6 15.324 13.703C15.573 14.128 15.573 14.663 15.17 15.113L15.113 15.17C14.663 15.573 14.127 15.573 13.702 15.324C13.6146 15.2738 13.5349 15.2126 13.463 15.142Z" fill="#050505"/>
</g>
<defs>
<clipPath id="clip0_187_745">
<rect width="16" height="16" fill="white"/>
</clipPath>
</defs>
</svg>
