<svg width="17" height="17" viewBox="0 0 17 17" fill="none" xmlns="http://www.w3.org/2000/svg">
<path d="M8.49999 1.23978C12.6043 1.23978 15.7857 4.24636 15.7857 8.30693C15.7857 12.3675 12.6043 15.3741 8.49999 15.3741C7.78755 15.3757 7.07812 15.2816 6.39077 15.0942C6.26164 15.0585 6.12414 15.0686 6.00159 15.1227L4.55356 15.7608C4.46617 15.7993 4.37067 15.8158 4.27544 15.8088C4.18021 15.8018 4.08816 15.7715 4.00735 15.7206C3.92655 15.6697 3.85948 15.5998 3.81202 15.5169C3.76455 15.434 3.73815 15.3408 3.73513 15.2454L3.69566 13.9497C3.69299 13.8708 3.67427 13.7933 3.64066 13.7219C3.60705 13.6505 3.55924 13.5867 3.50016 13.5344C2.76917 12.8759 2.18713 12.0689 1.79293 11.1674C1.39873 10.266 1.20145 9.29074 1.21427 8.30693C1.21427 4.24636 4.3957 1.23978 8.49999 1.23978ZM4.12491 10.3736C4.08162 10.4422 4.06379 10.5238 4.07454 10.6042C4.08528 10.6846 4.12393 10.7587 4.18372 10.8135C4.24351 10.8683 4.32065 10.9004 4.40168 10.9041C4.4827 10.9078 4.56246 10.8829 4.62702 10.8339L6.92566 9.08893C7.00163 9.03179 7.09411 9.00089 7.18916 9.00089C7.28422 9.00089 7.3767 9.03179 7.45266 9.08893L9.15266 10.3639C9.27343 10.4542 9.41157 10.5185 9.5584 10.5528C9.70523 10.5871 9.85757 10.5907 10.0058 10.5633C10.1541 10.5358 10.2951 10.478 10.4199 10.3934C10.5448 10.3089 10.6508 10.1994 10.7312 10.0719L12.8714 6.67675C12.9147 6.60816 12.9325 6.52655 12.9218 6.44615C12.911 6.36576 12.8724 6.2917 12.8126 6.23689C12.7528 6.18209 12.6757 6.15003 12.5947 6.14631C12.5136 6.14259 12.4339 6.16744 12.3693 6.21653L10.0707 7.96146C9.9947 8.0186 9.90222 8.0495 9.80717 8.0495C9.71211 8.0495 9.61963 8.0186 9.54366 7.96146L7.84366 6.68646C7.7229 6.59618 7.58476 6.53186 7.43793 6.49756C7.2911 6.46325 7.13876 6.4597 6.99049 6.48713C6.84222 6.51456 6.70123 6.57238 6.5764 6.65694C6.45156 6.7415 6.34557 6.85098 6.26509 6.9785L4.12491 10.3736Z" fill="#050505"/>
</svg>
