<svg width="15" height="15" viewBox="0 0 15 15" fill="none" xmlns="http://www.w3.org/2000/svg">
<g clip-path="url(#clip0_187_874)">
<path d="M10.0715 2.11596C11.1265 3.17082 11.7193 4.60156 11.7193 6.09344C11.7194 7.58532 11.1269 9.01614 10.072 10.0711C9.01716 11.1261 7.58641 11.7188 6.09453 11.7189C4.60265 11.719 3.17184 11.1264 2.11686 10.0716C1.06187 9.01673 0.469143 7.58599 0.469055 6.0941C0.468967 4.60222 1.06153 3.17141 2.11639 2.11643C3.17124 1.06145 4.60199 0.468716 6.09387 0.468628C7.58575 0.46854 9.01656 1.0611 10.0715 2.11596ZM9.07779 3.10971C8.28662 2.31841 7.21351 1.87382 6.09453 1.87373C4.97555 1.87364 3.90237 2.31807 3.11108 3.10924C2.31978 3.90042 1.87518 4.97353 1.87509 6.0925C1.87501 7.21148 2.31943 8.28466 3.11061 9.07596C3.90489 9.85147 4.97282 10.2827 6.08289 10.2761C7.19295 10.2695 8.25569 9.82562 9.0407 9.04074C9.82571 8.25585 10.2697 7.19318 10.2765 6.08312C10.2833 4.97305 9.85224 3.90505 9.07686 3.11065L9.07779 3.10971Z" fill="#65676B"/>
<path d="M9.7406 8.20315C9.66758 8.33289 9.60518 8.46833 9.55404 8.60815C9.40872 8.99909 9.33841 9.40409 9.39279 9.8119C9.44435 10.201 9.61029 10.5563 9.89904 10.846C10.0264 10.9738 10.1981 11.0478 10.3786 11.0526C10.559 11.0573 10.7343 10.9925 10.8683 10.8716C11.0023 10.7506 11.0846 10.5828 11.0982 10.4028C11.1119 10.2228 11.0558 10.0445 10.9415 9.90471L10.8937 9.85128C10.8329 9.7911 10.795 9.71147 10.7868 9.62628C10.7672 9.48096 10.8 9.29253 10.8712 9.09846C10.9003 9.02253 10.9275 8.96253 10.9462 8.92784L10.9575 8.90721C11.0038 8.82725 11.0339 8.73895 11.046 8.64736C11.0582 8.55577 11.0522 8.46268 11.0284 8.37341C11.0046 8.28413 10.9634 8.20042 10.9073 8.12705C10.8511 8.05369 10.781 7.9921 10.7011 7.94581C10.6211 7.89952 10.5328 7.86943 10.4412 7.85726C10.3496 7.8451 10.2565 7.85109 10.1673 7.8749C10.078 7.89871 9.99428 7.93987 9.92091 7.99603C9.84754 8.05219 9.78595 8.12225 9.73966 8.20221L9.7406 8.20315Z" fill="#65676B"/>
<path d="M8.9597 10.9303C8.99533 10.9135 9.04408 10.8928 9.10033 10.8703C9.29439 10.7981 9.48283 10.7653 9.6272 10.7841C9.7022 10.7935 9.76126 10.816 9.81283 10.8563L9.85126 10.89C9.98455 11.0142 10.1608 11.0818 10.343 11.0786C10.5252 11.0754 10.699 11.0016 10.8278 10.8728C10.9566 10.744 11.0304 10.5702 11.0336 10.388C11.0368 10.2058 10.9692 10.0296 10.845 9.89627C10.5667 9.61658 10.2026 9.43832 9.81095 9.39002C9.40314 9.33564 8.99814 9.40689 8.6072 9.55408C8.43001 9.6197 8.2922 9.68814 8.20126 9.74158C8.05073 9.82979 7.93838 9.97082 7.88603 10.1373C7.83368 10.3037 7.84509 10.4836 7.91802 10.6421C7.99096 10.8006 8.12022 10.9264 8.28068 10.9949C8.44114 11.0634 8.62134 11.0698 8.78626 11.0128L8.84814 10.9875L8.96064 10.9303H8.9597Z" fill="#65676B"/>
<path d="M12.6216 14.1956L12.5841 14.1544L9.23346 10.2244C8.67189 9.56533 9.56627 8.67189 10.2253 9.23345L14.1544 12.5841L14.1956 12.6216C14.25 12.6769 14.31 12.75 14.3663 12.8466C14.5997 13.245 14.5997 13.7466 14.2219 14.1685L14.1685 14.2219C13.7466 14.5997 13.2441 14.5997 12.8456 14.3663C12.7637 14.3192 12.689 14.2619 12.6216 14.1956Z" fill="#65676B"/>
</g>
<defs>
<clipPath id="clip0_187_874">
<rect width="15" height="15" fill="white"/>
</clipPath>
</defs>
</svg>
