<svg width="40" height="40" viewBox="0 0 40 40" fill="none" xmlns="http://www.w3.org/2000/svg">
<circle cx="20" cy="20" r="20" fill="#E4E6EB"/>
<path d="M20 11.4586C24.8285 11.4586 28.5714 14.9957 28.5714 19.7728C28.5714 24.55 24.8285 28.0871 20 28.0871C19.1618 28.0891 18.3272 27.9783 17.5185 27.7578C17.3666 27.7159 17.2049 27.7277 17.0607 27.7914L15.3571 28.5421C15.2543 28.5874 15.142 28.6068 15.0299 28.5985C14.9179 28.5903 14.8096 28.5547 14.7145 28.4948C14.6195 28.4349 14.5406 28.3526 14.4847 28.2552C14.4289 28.1577 14.3978 28.048 14.3943 27.9357L14.3478 26.4114C14.3447 26.3186 14.3227 26.2275 14.2831 26.1435C14.2436 26.0595 14.1873 25.9844 14.1178 25.9228C13.2578 25.1481 12.5731 24.1987 12.1093 23.1381C11.6456 22.0776 11.4135 20.9303 11.4285 19.7728C11.4285 14.9957 15.1714 11.4586 20 11.4586ZM14.8528 22.2043C14.8019 22.285 14.7809 22.381 14.7936 22.4756C14.8062 22.5701 14.8517 22.6573 14.922 22.7217C14.9924 22.7862 15.0831 22.8239 15.1784 22.8283C15.2738 22.8327 15.3676 22.8035 15.4435 22.7457L18.1478 20.6928C18.2372 20.6256 18.346 20.5893 18.4578 20.5893C18.5697 20.5893 18.6785 20.6256 18.7678 20.6928L20.7678 22.1928C20.9099 22.2991 21.0724 22.3747 21.2452 22.4151C21.4179 22.4554 21.5971 22.4596 21.7716 22.4273C21.946 22.3951 22.1119 22.3271 22.2587 22.2276C22.4056 22.1281 22.5303 21.9993 22.625 21.8493L25.1428 17.855C25.1938 17.7743 25.2147 17.6783 25.2021 17.5837C25.1895 17.4891 25.144 17.402 25.0737 17.3375C25.0033 17.273 24.9125 17.2353 24.8172 17.2309C24.7219 17.2266 24.6281 17.2558 24.5521 17.3136L21.8478 19.3664C21.7585 19.4336 21.6497 19.47 21.5378 19.47C21.426 19.47 21.3172 19.4336 21.2278 19.3664L19.2278 17.8664C19.0858 17.7602 18.9232 17.6845 18.7505 17.6442C18.5778 17.6038 18.3985 17.5996 18.2241 17.6319C18.0497 17.6642 17.8838 17.7322 17.7369 17.8317C17.5901 17.9312 17.4654 18.06 17.3707 18.21L14.8528 22.2043Z" fill="#050505"/>
</svg>
