<svg width="16" height="20" viewBox="0 0 16 20" fill="none" xmlns="http://www.w3.org/2000/svg">
<path d="M6.80657 19.5965C1.06563 11.3684 0 10.5239 0 7.5C0 3.35785 3.39645 0 7.58621 0C11.776 0 15.1724 3.35785 15.1724 7.5C15.1724 10.5239 14.1068 11.3684 8.36585 19.5965C7.98911 20.1345 7.18327 20.1345 6.80657 19.5965Z" fill="#8C939D"/>
<path d="M6.37751 9.9018L4.10251 7.72267C3.96583 7.59176 3.96583 7.37949 4.10251 7.24856L4.59747 6.77444C4.73415 6.64351 4.95577 6.64351 5.09245 6.77444L6.625 8.24239L9.90755 5.09819C10.0442 4.96727 10.2659 4.96727 10.4025 5.09819L10.8975 5.57231C11.0342 5.70322 11.0342 5.91549 10.8975 6.04642L6.87249 9.90181C6.7358 10.0327 6.51419 10.0327 6.37751 9.9018Z" fill="white"/>
</svg>
