<svg width="15" height="15" viewBox="0 0 15 15" fill="none" xmlns="http://www.w3.org/2000/svg">
<path fill-rule="evenodd" clip-rule="evenodd" d="M2.03275 12.1395C0.858686 10.8508 0.144439 9.14948 0.144439 7.28405C0.144439 3.26113 3.46461 -0.00012207 7.56022 -0.00012207C11.6559 -0.00012207 14.976 3.26113 14.976 7.28405C14.976 10.1286 13.3155 12.5913 10.8951 13.7904C9.41429 14.5625 7.7249 14.9999 5.93154 14.9999C3.73415 14.9999 1.69283 14.3432 0 13.2188C0 13.2188 1.13521 13.095 2.03245 12.1398L2.03275 12.1395ZM11.0438 10.8891C12.9624 8.97059 12.9624 5.86005 11.0438 3.94152C10.1542 3.05191 9.00826 2.57509 7.84372 2.51055V2.51027C7.80858 1.63654 8.2789 1.04648 8.28118 1.0436L8.28072 1.04369L8.28108 1.04323C6.94265 1.30178 5.66458 1.9493 4.62818 2.9857C3.83336 3.78048 3.26743 4.71745 2.93004 5.71466C2.97943 5.58388 3.0345 5.45473 3.09525 5.32766C3.02533 5.50598 2.96215 5.6882 2.905 5.87463C2.34313 7.5803 2.73972 9.53259 4.09622 10.8891C6.01479 12.8077 9.12533 12.8077 11.0438 10.8891Z" fill="#65676B"/>
<path fill-rule="evenodd" clip-rule="evenodd" d="M5.07605 6.91035V7.52067V7.92721C5.07605 8.33299 5.40498 8.66192 5.8108 8.66192C6.21659 8.66192 6.54548 8.33299 6.54548 7.92721V7.52006V6.91035C6.54548 6.50463 6.21659 6.1756 5.8108 6.1756C5.40498 6.1756 5.07605 6.50463 5.07605 6.91035Z" fill="#65676B"/>
<path fill-rule="evenodd" clip-rule="evenodd" d="M8.71268 6.91035V7.52067V7.92721C8.71268 8.33299 9.04164 8.66192 9.44739 8.66192C9.85318 8.66192 10.1821 8.33299 10.1821 7.92721V7.52006V6.91035C10.1821 6.50463 9.85318 6.1756 9.44739 6.1756C9.04164 6.1756 8.71268 6.50463 8.71268 6.91035Z" fill="#65676B"/>
</svg>
