<svg width="40" height="40" viewBox="0 0 40 40" fill="none" xmlns="http://www.w3.org/2000/svg">
<circle cx="20" cy="20" r="20" fill="#E4E6EB"/>
<path d="M15.605 26.7771C16.5765 26.7771 18.1736 26.6878 20.3336 26.29C19.96 27.3057 18.9865 28.0335 17.8429 28.0335C16.8922 28.0335 16.0593 27.53 15.5893 26.7771H15.605ZM27.8022 21.2357C27.9786 22.1443 27.3415 22.9478 25.9072 23.6257C25.1215 23.9964 23.3743 24.7021 20.4886 25.2635C18.2629 25.6957 16.6322 25.795 15.6057 25.795C15.3007 25.795 15.0486 25.7864 14.85 25.775C13.2672 25.6843 12.3743 25.1771 12.1979 24.2685C11.93 22.8921 12.3536 22.3607 13.0557 21.4807L13.2407 21.2485C13.7143 20.6478 13.8993 20.0578 13.5965 18.5014C12.9186 15.0157 14.4886 12.6335 17.9029 11.9664C21.3186 11.3071 23.6672 12.9257 24.345 16.4121C24.6472 17.9685 25.04 18.4457 25.7043 18.825V18.8257L25.9629 18.9721C26.9429 19.525 27.5343 19.8585 27.8022 21.2357Z" fill="#050505"/>
</svg>
