<svg width="40" height="40" viewBox="0 0 40 40" fill="none" xmlns="http://www.w3.org/2000/svg">
<circle cx="20" cy="20" r="20" fill="#E4E6EB"/>
<g clip-path="url(#clip0_187_882)">
<path d="M13.1818 15.9091C14.688 15.9091 15.9091 14.688 15.9091 13.1818C15.9091 11.6756 14.688 10.4545 13.1818 10.4545C11.6756 10.4545 10.4545 11.6756 10.4545 13.1818C10.4545 14.688 11.6756 15.9091 13.1818 15.9091Z" fill="#050505"/>
<path d="M20 15.9091C21.5062 15.9091 22.7273 14.688 22.7273 13.1818C22.7273 11.6756 21.5062 10.4545 20 10.4545C18.4937 10.4545 17.2727 11.6756 17.2727 13.1818C17.2727 14.688 18.4937 15.9091 20 15.9091Z" fill="#050505"/>
<path d="M26.8182 15.9091C28.3244 15.9091 29.5454 14.688 29.5454 13.1818C29.5454 11.6756 28.3244 10.4545 26.8182 10.4545C25.3119 10.4545 24.0909 11.6756 24.0909 13.1818C24.0909 14.688 25.3119 15.9091 26.8182 15.9091Z" fill="#050505"/>
<path d="M13.1818 22.7273C14.688 22.7273 15.9091 21.5062 15.9091 20C15.9091 18.4937 14.688 17.2727 13.1818 17.2727C11.6756 17.2727 10.4545 18.4937 10.4545 20C10.4545 21.5062 11.6756 22.7273 13.1818 22.7273Z" fill="#050505"/>
<path d="M20 22.7273C21.5062 22.7273 22.7273 21.5062 22.7273 20C22.7273 18.4937 21.5062 17.2727 20 17.2727C18.4937 17.2727 17.2727 18.4937 17.2727 20C17.2727 21.5062 18.4937 22.7273 20 22.7273Z" fill="#050505"/>
<path d="M26.8182 22.7273C28.3244 22.7273 29.5454 21.5062 29.5454 20C29.5454 18.4937 28.3244 17.2727 26.8182 17.2727C25.3119 17.2727 24.0909 18.4937 24.0909 20C24.0909 21.5062 25.3119 22.7273 26.8182 22.7273Z" fill="#050505"/>
<path d="M13.1818 29.5454C14.688 29.5454 15.9091 28.3244 15.9091 26.8182C15.9091 25.3119 14.688 24.0909 13.1818 24.0909C11.6756 24.0909 10.4545 25.3119 10.4545 26.8182C10.4545 28.3244 11.6756 29.5454 13.1818 29.5454Z" fill="#050505"/>
<path d="M20 29.5454C21.5062 29.5454 22.7273 28.3244 22.7273 26.8182C22.7273 25.3119 21.5062 24.0909 20 24.0909C18.4937 24.0909 17.2727 25.3119 17.2727 26.8182C17.2727 28.3244 18.4937 29.5454 20 29.5454Z" fill="#050505"/>
<path d="M26.8182 29.5454C28.3244 29.5454 29.5454 28.3244 29.5454 26.8182C29.5454 25.3119 28.3244 24.0909 26.8182 24.0909C25.3119 24.0909 24.0909 25.3119 24.0909 26.8182C24.0909 28.3244 25.3119 29.5454 26.8182 29.5454Z" fill="#050505"/>
</g>
<defs>
<clipPath id="clip0_187_882">
<rect width="20" height="20" fill="white" transform="translate(10 10)"/>
</clipPath>
</defs>
</svg>
