<svg width="20" height="20" viewBox="0 0 20 20" fill="none" xmlns="http://www.w3.org/2000/svg">
<path d="M16.6667 0.833333C16.6667 0.373096 16.2936 0 15.8333 0H4.16666C3.70642 0 3.33332 0.373096 3.33332 0.833333C3.33332 1.29357 3.70642 1.66667 4.16666 1.66667H15.8333C16.2936 1.66667 16.6667 1.29357 16.6667 0.833333ZM3.33332 19.1667C3.33332 19.6269 3.70642 20 4.16666 20H15.8333C16.2936 20 16.6667 19.6269 16.6667 19.1667C16.6667 18.7064 16.2936 18.3333 15.8333 18.3333H4.16666C3.70642 18.3333 3.33332 18.7064 3.33332 19.1667ZM16.6667 3.33333H3.33332C2.8913 3.33333 2.46737 3.50893 2.15481 3.82149C1.84225 4.13405 1.66666 4.55797 1.66666 5V15C1.66666 15.442 1.84225 15.8659 2.15481 16.1785C2.46737 16.4911 2.8913 16.6667 3.33332 16.6667H16.6667C17.1087 16.6667 17.5326 16.4911 17.8452 16.1785C18.1577 15.8659 18.3333 15.442 18.3333 15V5C18.3333 4.55797 18.1577 4.13405 17.8452 3.82149C17.5326 3.50893 17.1087 3.33333 16.6667 3.33333Z" fill="#8C939D"/>
<path d="M8.94675 13.2024L5.96758 10.2969C5.7886 10.1223 5.7886 9.83931 5.96758 9.66473L6.61575 9.03258C6.79473 8.858 7.08495 8.858 7.26393 9.03258L9.27084 10.9898L13.5694 6.79757C13.7484 6.62302 14.0386 6.62302 14.2176 6.79757L14.8658 7.42973C15.0448 7.60429 15.0448 7.88731 14.8658 8.06189L9.59494 13.2024C9.41593 13.377 9.12573 13.377 8.94675 13.2024Z" fill="white"/>
</svg>
