<svg width="23" height="30" viewBox="0 0 23 30" fill="none" xmlns="http://www.w3.org/2000/svg">
<path d="M10.2098 29.3947C1.59844 17.0526 0 15.7859 0 11.25C0 5.03678 5.09467 0 11.3793 0C17.6639 0 22.7586 5.03678 22.7586 11.25C22.7586 15.7859 21.1602 17.0526 12.5488 29.3947C11.9837 30.2018 10.7749 30.2017 10.2098 29.3947ZM11.3793 15.9375C13.9979 15.9375 16.1207 13.8388 16.1207 11.25C16.1207 8.66115 13.9979 6.5625 11.3793 6.5625C8.76071 6.5625 6.63793 8.66115 6.63793 11.25C6.63793 13.8388 8.76071 15.9375 11.3793 15.9375Z" fill="#F35269"/>
</svg>
