<svg width="16" height="15" viewBox="0 0 16 15" fill="none" xmlns="http://www.w3.org/2000/svg">
<path d="M6.03857 6.74988C6.28721 6.74988 6.52567 6.65111 6.70149 6.47529C6.8773 6.29948 6.97607 6.06102 6.97607 5.81238C6.97607 5.56374 6.8773 5.32528 6.70149 5.14947C6.52567 4.97365 6.28721 4.87488 6.03857 4.87488C5.78993 4.87488 5.55148 4.97365 5.37566 5.14947C5.19985 5.32528 5.10107 5.56374 5.10107 5.81238C5.10107 6.06102 5.19985 6.29948 5.37566 6.47529C5.55148 6.65111 5.78993 6.74988 6.03857 6.74988ZM11.8511 5.81238C11.8511 6.06102 11.7523 6.29948 11.5765 6.47529C11.4007 6.65111 11.1622 6.74988 10.9136 6.74988C10.6649 6.74988 10.4265 6.65111 10.2507 6.47529C10.0748 6.29948 9.97607 6.06102 9.97607 5.81238C9.97607 5.56374 10.0748 5.32528 10.2507 5.14947C10.4265 4.97365 10.6649 4.87488 10.9136 4.87488C11.1622 4.87488 11.4007 4.97365 11.5765 5.14947C11.7523 5.32528 11.8511 5.56374 11.8511 5.81238ZM6.39557 11.5053C7.03776 11.8389 7.75242 12.0088 8.47607 11.9999C9.19968 12.0088 9.91429 11.839 10.5565 11.5053C11.1986 11.1717 11.7484 10.6846 12.1571 10.0874C12.2221 9.98146 12.2423 9.85406 12.2134 9.7332C12.1844 9.61234 12.1087 9.50793 12.0028 9.44294C11.8968 9.37795 11.7694 9.35769 11.6486 9.38663C11.5277 9.41557 11.4233 9.49133 11.3583 9.59725C11.0339 10.058 10.6016 10.4325 10.0992 10.6878C9.5968 10.9432 9.03956 11.0718 8.47607 11.0624C7.91256 11.0716 7.35534 10.9429 6.85293 10.6876C6.35051 10.4322 5.91814 10.0579 5.59345 9.59725C5.52845 9.49133 5.42405 9.41557 5.30319 9.38663C5.18233 9.35769 5.05493 9.37795 4.94901 9.44294C4.84309 9.50793 4.76733 9.61234 4.73839 9.7332C4.70945 9.85406 4.7297 9.98146 4.7947 10.0874C5.20342 10.6846 5.75333 11.1717 6.39557 11.5053ZM8.47607 -0.00012207C4.33382 -0.00012207 0.976074 3.35763 0.976074 7.49988C0.976074 11.6421 4.33382 14.9999 8.47607 14.9999C12.6183 14.9999 15.9761 11.6421 15.9761 7.49988C15.9761 3.35763 12.6183 -0.00012207 8.47607 -0.00012207ZM1.91357 7.49988C1.91357 3.8755 4.8517 0.937378 8.47607 0.937378C12.1004 0.937378 15.0386 3.8755 15.0386 7.49988C15.0386 11.1243 12.1004 14.0624 8.47607 14.0624C4.8517 14.0624 1.91357 11.1243 1.91357 7.49988Z" fill="#65676B"/>
</svg>
