<svg width="16" height="13" viewBox="0 0 16 13" fill="none" xmlns="http://www.w3.org/2000/svg">
<path d="M5.3175 5.04202C5.83286 4.98845 6.23143 5.08166 6.37393 5.15238C6.43708 5.18643 6.50642 5.20745 6.57785 5.2142C6.64928 5.22094 6.72133 5.21327 6.78974 5.19163C6.85814 5.17 6.9215 5.13485 6.97607 5.08826C7.03063 5.04167 7.07527 4.9846 7.10736 4.92043C7.13945 4.85626 7.15831 4.7863 7.16285 4.7147C7.16738 4.6431 7.15748 4.57132 7.13375 4.50361C7.11001 4.43591 7.07292 4.37366 7.02467 4.32057C6.97642 4.26747 6.91799 4.22461 6.85286 4.19452C6.47679 4.00595 5.85857 3.90845 5.20607 3.97702C4.1775 4.08416 3.11893 4.97773 3.11893 6.43809C3.11893 7.92202 4.24822 8.90238 5.58322 8.90238C6.20465 8.90238 6.76179 8.61095 7.08 8.30988C7.36072 8.04416 7.40465 7.69166 7.40465 7.47095V6.43809C7.40465 6.29601 7.3482 6.15975 7.24774 6.05928C7.14727 5.95882 7.01101 5.90238 6.86893 5.90238H6.00429C5.86221 5.90238 5.72595 5.95882 5.62548 6.05928C5.52502 6.15975 5.46857 6.29601 5.46857 6.43809C5.46857 6.58017 5.52502 6.71643 5.62548 6.8169C5.72595 6.91737 5.86221 6.97381 6.00429 6.97381H6.33322V7.47095C6.3332 7.49644 6.33105 7.52189 6.32679 7.54702C6.11819 7.72305 5.85606 7.82315 5.58322 7.83095C4.8 7.83095 4.19036 7.28988 4.19036 6.43809C4.19036 5.56166 4.79786 5.09666 5.3175 5.04202ZM9.5475 4.51059C9.5475 4.36851 9.49106 4.23225 9.3906 4.13178C9.29013 4.03132 9.15387 3.97488 9.01179 3.97488C8.86971 3.97488 8.73345 4.03132 8.63298 4.13178C8.53251 4.23225 8.47607 4.36851 8.47607 4.51059V8.36773C8.47607 8.50982 8.53251 8.64608 8.63298 8.74654C8.73345 8.84701 8.86971 8.90345 9.01179 8.90345C9.15387 8.90345 9.29013 8.84701 9.3906 8.74654C9.49106 8.64608 9.5475 8.50982 9.5475 8.36773V4.51059ZM11.1546 3.97488C11.0126 3.97488 10.8763 4.03132 10.7758 4.13178C10.6754 4.23225 10.6189 4.36851 10.6189 4.51059V8.36773C10.6189 8.50982 10.6754 8.64608 10.7758 8.74654C10.8763 8.84701 11.0126 8.90345 11.1546 8.90345C11.2967 8.90345 11.433 8.84701 11.5335 8.74654C11.6339 8.64608 11.6904 8.50982 11.6904 8.36773V6.97059L12.765 6.96416C12.9071 6.96331 13.043 6.90605 13.1429 6.80498C13.2427 6.70391 13.2984 6.56732 13.2975 6.42524C13.2966 6.28315 13.2394 6.14723 13.1383 6.04737C13.0373 5.94751 12.9007 5.89188 12.7586 5.89274L11.6904 5.89916V5.04524H13.2975C13.4396 5.04524 13.5758 4.98879 13.6763 4.88833C13.7768 4.78786 13.8332 4.6516 13.8332 4.50952C13.8332 4.36744 13.7768 4.23118 13.6763 4.13071C13.5758 4.03025 13.4396 3.97381 13.2975 3.97381H11.1546V3.97488ZM3.65465 -0.00012207C2.94424 -0.00012207 2.26294 0.282084 1.76061 0.784413C1.25828 1.28674 0.976074 1.96805 0.976074 2.67845V10.1784C0.976074 10.8889 1.25828 11.5702 1.76061 12.0725C2.26294 12.5748 2.94424 12.857 3.65465 12.857H13.2975C14.0079 12.857 14.6892 12.5748 15.1915 12.0725C15.6939 11.5702 15.9761 10.8889 15.9761 10.1784V2.67845C15.9761 1.96805 15.6939 1.28674 15.1915 0.784413C14.6892 0.282084 14.0079 -0.00012207 13.2975 -0.00012207H3.65465ZM2.0475 2.67845C2.0475 2.25221 2.21683 1.84343 2.51822 1.54203C2.81962 1.24063 3.2284 1.07131 3.65465 1.07131H13.2975C13.7237 1.07131 14.1325 1.24063 14.4339 1.54203C14.7353 1.84343 14.9046 2.25221 14.9046 2.67845V10.1784C14.9046 10.6047 14.7353 11.0135 14.4339 11.3149C14.1325 11.6163 13.7237 11.7856 13.2975 11.7856H3.65465C3.2284 11.7856 2.81962 11.6163 2.51822 11.3149C2.21683 11.0135 2.0475 10.6047 2.0475 10.1784V2.67845Z" fill="#65676B"/>
</svg>
