<svg width="17" height="17" viewBox="0 0 17 17" fill="none" xmlns="http://www.w3.org/2000/svg">
<path d="M11.9088 0.288607C12.6165 0.165278 13.3441 0.328104 13.9317 0.741266C14.5193 1.15443 14.9186 1.78408 15.042 2.49171L16.0262 8.13908C16.1113 8.62873 15.9986 9.13214 15.7127 9.53869L11.9025 14.9584C11.7609 15.1598 11.581 15.3313 11.373 15.4632C11.1651 15.5951 10.9332 15.6848 10.6907 15.727L5.04328 16.7113C4.33565 16.8346 3.60802 16.6718 3.02044 16.2586C2.43286 15.8455 2.03348 15.2158 1.91015 14.5082L0.264726 5.06716C0.141397 4.35953 0.304223 3.6319 0.717384 3.04432C1.13055 2.45675 1.7602 2.05736 2.46783 1.93404L11.9088 0.288607ZM12.1235 1.52004L2.68245 3.16547C2.30142 3.23188 1.96237 3.44693 1.7399 3.76332C1.51743 4.07971 1.42975 4.47151 1.49616 4.85254L3.14159 14.2936C3.27981 15.0866 4.03561 15.6181 4.82866 15.4798L10.3701 14.5141L9.93173 11.9986C9.75337 12.058 9.57212 12.1082 9.38867 12.1491L9.12136 12.2025C8.04369 12.3995 6.93141 12.2563 5.93876 11.7928C5.78822 11.7233 5.67147 11.5968 5.6142 11.4411C5.58585 11.3641 5.57295 11.2822 5.57624 11.2001C5.57954 11.1181 5.59896 11.0375 5.6334 10.9629C5.66784 10.8884 5.71663 10.8214 5.77698 10.7657C5.83732 10.71 5.90805 10.6667 5.98511 10.6384C6.14074 10.5811 6.31275 10.588 6.4633 10.6576C7.23975 11.0163 8.04966 11.1204 8.90674 10.971C9.28602 10.9049 9.63991 10.795 9.96922 10.6412C10.0998 10.18 10.3506 9.7618 10.6959 9.42934C11.0412 9.09688 11.4686 8.86211 11.9344 8.74903L12.1082 8.71281L14.7763 8.2478L13.8105 2.70633C13.7441 2.3253 13.5291 1.98626 13.2127 1.76378C12.8963 1.54131 12.5045 1.45364 12.1235 1.52004ZM14.1199 9.63104L12.3237 9.9441C11.963 10.007 11.6391 10.2033 11.4165 10.4939C11.1938 10.7845 11.0887 11.1483 11.1218 11.5129L11.1374 11.6312L11.4498 13.4284L14.1199 9.63104ZM5.40524 5.44094C5.54171 5.41315 5.68237 5.41302 5.8189 5.44054C5.95543 5.46807 6.08505 5.52269 6.20009 5.60118C6.31514 5.67967 6.41328 5.78043 6.48871 5.89751C6.56414 6.01459 6.61533 6.14561 6.63924 6.28281C6.66315 6.42002 6.65931 6.56063 6.62793 6.69632C6.59656 6.83201 6.53829 6.96004 6.45658 7.07282C6.37487 7.1856 6.27137 7.28085 6.1522 7.35294C6.03304 7.42503 5.90062 7.47249 5.7628 7.49251C5.49063 7.53994 5.21077 7.47732 4.98478 7.31841C4.75879 7.1595 4.60518 6.91733 4.55775 6.64516C4.51031 6.373 4.57294 6.09314 4.73185 5.86715C4.89076 5.64116 5.13293 5.48755 5.4051 5.44011L5.40524 5.44094ZM10.331 4.58245C10.4675 4.55467 10.6081 4.55453 10.7446 4.58206C10.8812 4.60958 11.0108 4.6642 11.1258 4.74269C11.2409 4.82118 11.339 4.92195 11.4145 5.03903C11.4899 5.15611 11.5411 5.28712 11.565 5.42433C11.5889 5.56153 11.5851 5.70214 11.5537 5.83783C11.5223 5.97353 11.464 6.10155 11.3823 6.21434C11.3006 6.32712 11.1971 6.42237 11.0779 6.49446C10.9588 6.56654 10.8264 6.614 10.6885 6.63403C10.4202 6.67301 10.1472 6.60581 9.92763 6.44672C9.70805 6.28762 9.55915 6.04917 9.51259 5.78203C9.46603 5.51489 9.52548 5.24013 9.6783 5.01613C9.83112 4.79212 10.0653 4.63655 10.331 4.58245Z" fill="#65676B"/>
</svg>
